# 3ds Max Wavefront OBJ Exporter v0.97b - (c)2007 guruware
# File Created: 23.07.2010 13:06:50

mtllib m1.mtl

#
# object Cylinder005
#

v  -0.5346 -1.7002 -6.1783
v  -0.5021 -1.8847 -6.1783
v  -0.6809 -1.9498 -5.3048
v  -0.7249 -1.7002 -5.3048
v  -0.4084 -2.0470 -6.1783
v  -0.5541 -2.1693 -5.3048
v  -0.2649 -2.1674 -6.1783
v  -0.3600 -2.3322 -5.3048
v  -0.0889 -2.2315 -6.1783
v  -0.1218 -2.4189 -5.3048
v  0.0985 -2.2315 -6.1783
v  0.1316 -2.4189 -5.3049
v  0.2745 -2.1674 -6.1784
v  0.3698 -2.3322 -5.3049
v  0.4180 -2.0470 -6.1784
v  0.5640 -2.1693 -5.3049
v  0.5117 -1.8847 -6.1784
v  0.6907 -1.9498 -5.3049
v  0.5442 -1.7002 -6.1784
v  0.7347 -1.7002 -5.3049
v  0.5117 -1.5157 -6.1784
v  0.6907 -1.4506 -5.3049
v  0.4180 -1.3535 -6.1784
v  0.5640 -1.2311 -5.3049
v  0.2745 -1.2330 -6.1784
v  0.3698 -1.0682 -5.3049
v  0.0985 -1.1690 -6.1783
v  0.1316 -0.9815 -5.3049
v  -0.0889 -1.1690 -6.1783
v  -0.1218 -0.9815 -5.3048
v  -0.2649 -1.2330 -6.1783
v  -0.3600 -1.0682 -5.3048
v  -0.4084 -1.3535 -6.1783
v  -0.5541 -1.2311 -5.3048
v  -0.5021 -1.5157 -6.1783
v  -0.6809 -1.4506 -5.3048
v  -0.7471 -1.9740 -4.4313
v  -0.7954 -1.7002 -4.4313
v  -0.6081 -2.2147 -4.4313
v  -0.3952 -2.3934 -4.4313
v  -0.1340 -2.4884 -4.4313
v  0.1440 -2.4884 -4.4314
v  0.4052 -2.3934 -4.4314
v  0.6182 -2.2147 -4.4314
v  0.7571 -1.9740 -4.4315
v  0.8054 -1.7002 -4.4315
v  0.7571 -1.4265 -4.4315
v  0.6182 -1.1857 -4.4314
v  0.4052 -1.0071 -4.4314
v  0.1440 -0.9120 -4.4314
v  -0.1340 -0.9120 -4.4313
v  -0.3952 -1.0071 -4.4313
v  -0.6081 -1.1857 -4.4313
v  -0.7471 -1.4265 -4.4313
v  -0.7470 -1.9740 -3.5578
v  -0.7953 -1.7002 -3.5578
v  -0.6080 -2.2147 -3.5578
v  -0.3951 -2.3934 -3.5578
v  -0.1339 -2.4884 -3.5579
v  0.1441 -2.4884 -3.5579
v  0.4053 -2.3934 -3.5579
v  0.6183 -2.2147 -3.5580
v  0.7573 -1.9740 -3.5580
v  0.8055 -1.7002 -3.5580
v  0.7573 -1.4265 -3.5580
v  0.6183 -1.1857 -3.5580
v  0.4053 -1.0071 -3.5579
v  0.1441 -0.9120 -3.5579
v  -0.1339 -0.9120 -3.5579
v  -0.3951 -1.0071 -3.5578
v  -0.6080 -1.1857 -3.5578
v  -0.7470 -1.4265 -3.5578
v  -0.7465 -1.9740 0.1408
v  -0.7948 -1.7002 0.1408
v  -0.6075 -2.2147 0.1407
v  -0.3946 -2.3934 0.1407
v  -0.1334 -2.4884 0.1407
v  0.1446 -2.4884 0.1407
v  0.4058 -2.3934 0.1406
v  0.6187 -2.2147 0.1406
v  0.7577 -1.9740 0.1406
v  0.8060 -1.7002 0.1406
v  0.7577 -1.4265 0.1406
v  0.6187 -1.1857 0.1406
v  0.4058 -1.0071 0.1406
v  0.1446 -0.9120 0.1407
v  -0.1334 -0.9120 0.1407
v  -0.3946 -1.0071 0.1407
v  -0.6075 -1.1857 0.1407
v  -0.7465 -1.4265 0.1408
v  -0.6092 -1.9241 3.3786
v  -0.6487 -1.7002 3.3786
v  -0.4955 -2.1210 3.3786
v  -0.3213 -2.2672 3.3786
v  -0.1077 -2.3450 3.3785
v  0.1197 -2.3450 3.3785
v  0.3334 -2.2672 3.3785
v  0.5076 -2.1210 3.3784
v  0.6212 -1.9241 3.3784
v  0.6607 -1.7002 3.3784
v  0.6212 -1.4763 3.3784
v  0.5076 -1.2794 3.3784
v  0.3334 -1.1332 3.3785
v  0.1197 -1.0555 3.3785
v  -0.1077 -1.0555 3.3785
v  -0.3213 -1.1332 3.3786
v  -0.4955 -1.2794 3.3786
v  -0.6092 -1.4763 3.3786
v  -0.3648 -1.8353 5.5164
v  -0.3886 -1.7002 5.5164
v  -0.2962 -1.9540 5.5163
v  -0.1911 -2.0422 5.5163
v  -0.0623 -2.0891 5.5163
v  0.0749 -2.0891 5.5163
v  0.2037 -2.0422 5.5163
v  0.3088 -1.9540 5.5163
v  0.3773 -1.8353 5.5163
v  0.4012 -1.7002 5.5163
v  0.3773 -1.5652 5.5163
v  0.3088 -1.4464 5.5163
v  0.2037 -1.3583 5.5163
v  0.0749 -1.3114 5.5163
v  -0.0623 -1.3114 5.5163
v  -0.1911 -1.3583 5.5163
v  -0.2962 -1.4464 5.5163
v  -0.3648 -1.5652 5.5164
v  -0.0348 -1.7152 6.2713
v  -0.0374 -1.7002 6.2713
v  -0.0272 -1.7284 6.2713
v  -0.0155 -1.7381 6.2713
v  -0.0012 -1.7433 6.2713
v  0.0140 -1.7433 6.2713
v  0.0283 -1.7381 6.2713
v  0.0399 -1.7284 6.2713
v  0.0475 -1.7152 6.2713
v  0.0502 -1.7002 6.2713
v  0.0475 -1.6852 6.2713
v  0.0399 -1.6721 6.2713
v  0.0283 -1.6623 6.2713
v  0.0140 -1.6571 6.2713
v  -0.0012 -1.6571 6.2713
v  -0.0155 -1.6623 6.2713
v  -0.0272 -1.6721 6.2713
v  -0.0348 -1.6852 6.2713
# 144 vertices

vn -0.9771 0.0000 -0.2128
vn -0.9182 -0.3342 -0.2128
vn -0.9296 -0.3384 -0.1459
vn -0.9893 0.0000 -0.1459
vn -0.7485 -0.6280 -0.2128
vn -0.7579 -0.6359 -0.1459
vn -0.4886 -0.8462 -0.2129
vn -0.4947 -0.8567 -0.1459
vn -0.1697 -0.9622 -0.2129
vn -0.1718 -0.9743 -0.1460
vn 0.1696 -0.9622 -0.2129
vn 0.1718 -0.9743 -0.1460
vn 0.4885 -0.8462 -0.2130
vn 0.4946 -0.8567 -0.1461
vn 0.7485 -0.6280 -0.2130
vn 0.7578 -0.6359 -0.1461
vn 0.9181 -0.3342 -0.2130
vn 0.9296 -0.3384 -0.1461
vn 0.9770 0.0000 -0.2130
vn 0.9893 0.0000 -0.1461
vn 0.9181 0.3342 -0.2130
vn 0.9296 0.3384 -0.1461
vn 0.7485 0.6280 -0.2130
vn 0.7578 0.6359 -0.1461
vn 0.4885 0.8462 -0.2130
vn 0.4946 0.8567 -0.1461
vn 0.1696 0.9622 -0.2129
vn 0.1718 0.9743 -0.1460
vn -0.1697 0.9622 -0.2129
vn -0.1718 0.9743 -0.1460
vn -0.4886 0.8462 -0.2129
vn -0.4947 0.8567 -0.1459
vn -0.7485 0.6280 -0.2128
vn -0.7579 0.6359 -0.1459
vn -0.9182 0.3342 -0.2128
vn -0.9296 0.3384 -0.1459
vn -0.9389 -0.3417 -0.0400
vn -0.9992 0.0000 -0.0400
vn -0.7654 -0.6423 -0.0400
vn -0.4996 -0.8653 -0.0401
vn -0.1735 -0.9840 -0.0401
vn 0.1735 -0.9840 -0.0402
vn 0.4996 -0.8653 -0.0402
vn 0.7654 -0.6423 -0.0402
vn 0.9389 -0.3417 -0.0403
vn 0.9992 0.0000 -0.0403
vn 0.9389 0.3417 -0.0403
vn 0.7654 0.6423 -0.0402
vn 0.4996 0.8653 -0.0402
vn 0.1735 0.9840 -0.0402
vn -0.1735 0.9840 -0.0401
vn -0.4996 0.8653 -0.0401
vn -0.7654 0.6423 -0.0400
vn -0.9389 0.3417 -0.0400
vn -0.9397 -0.3420 0.0001
vn -1.0000 0.0000 0.0001
vn -0.7660 -0.6428 0.0001
vn -0.5000 -0.8660 0.0001
vn -0.1736 -0.9848 -0.0000
vn 0.1736 -0.9848 -0.0000
vn 0.5000 -0.8660 -0.0001
vn 0.7660 -0.6428 -0.0001
vn 0.9397 -0.3420 -0.0001
vn 1.0000 0.0000 -0.0001
vn 0.9397 0.3420 -0.0001
vn 0.7660 0.6428 -0.0001
vn 0.5000 0.8660 -0.0001
vn 0.1736 0.9848 -0.0000
vn -0.1736 0.9848 -0.0000
vn -0.5000 0.8660 0.0001
vn -0.7660 0.6428 0.0001
vn -0.9397 0.3420 0.0001
vn -0.9395 -0.3419 0.0225
vn -0.9997 0.0000 0.0226
vn -0.7658 -0.6426 0.0225
vn -0.4999 -0.8658 0.0225
vn -0.1736 -0.9846 0.0224
vn 0.1736 -0.9846 0.0224
vn 0.4999 -0.8658 0.0224
vn 0.7659 -0.6426 0.0223
vn 0.9395 -0.3419 0.0223
vn 0.9998 0.0000 0.0223
vn 0.9395 0.3419 0.0223
vn 0.7659 0.6426 0.0223
vn 0.4999 0.8658 0.0224
vn 0.1736 0.9846 0.0224
vn -0.1736 0.9846 0.0224
vn -0.4999 0.8658 0.0225
vn -0.7658 0.6426 0.0225
vn -0.9395 0.3419 0.0225
vn -0.9365 -0.3409 0.0826
vn -0.9966 0.0000 0.0826
vn -0.7634 -0.6406 0.0826
vn -0.4983 -0.8631 0.0826
vn -0.1730 -0.9814 0.0825
vn 0.1731 -0.9814 0.0825
vn 0.4983 -0.8631 0.0825
vn 0.7634 -0.6406 0.0824
vn 0.9365 -0.3409 0.0824
vn 0.9966 0.0000 0.0824
vn 0.9365 0.3409 0.0824
vn 0.7634 0.6406 0.0824
vn 0.4983 0.8631 0.0825
vn 0.1731 0.9814 0.0825
vn -0.1730 0.9814 0.0825
vn -0.4983 0.8631 0.0826
vn -0.7634 0.6406 0.0826
vn -0.9365 0.3409 0.0826
vn -0.9047 -0.3293 0.2702
vn -0.9628 0.0000 0.2702
vn -0.7375 -0.6189 0.2702
vn -0.4814 -0.8338 0.2701
vn -0.1672 -0.9482 0.2701
vn 0.1672 -0.9482 0.2701
vn 0.4815 -0.8338 0.2700
vn 0.7376 -0.6189 0.2700
vn 0.9048 -0.3293 0.2700
vn 0.9629 0.0000 0.2699
vn 0.9048 0.3293 0.2700
vn 0.7376 0.6189 0.2700
vn 0.4815 0.8338 0.2700
vn 0.1672 0.9482 0.2701
vn -0.1672 0.9482 0.2701
vn -0.4814 0.8338 0.2701
vn -0.7375 0.6189 0.2702
vn -0.9047 0.3293 0.2702
vn -0.8520 -0.3101 0.4218
vn -0.9067 0.0000 0.4218
vn -0.6946 -0.5829 0.4217
vn -0.4533 -0.7853 0.4217
vn -0.1574 -0.8930 0.4217
vn 0.1575 -0.8930 0.4216
vn 0.4534 -0.7853 0.4216
vn 0.6947 -0.5829 0.4216
vn 0.8521 -0.3101 0.4215
vn 0.9068 0.0000 0.4215
vn 0.8521 0.3101 0.4215
vn 0.6947 0.5829 0.4216
vn 0.4534 0.7853 0.4216
vn 0.1575 0.8930 0.4216
vn -0.1574 0.8930 0.4217
vn -0.4533 0.7853 0.4217
vn -0.6946 0.5829 0.4217
vn -0.8520 0.3101 0.4218
vn -0.0001 0.0000 -1.0000
vn 0.0001 0.0000 1.0000
# 146 vertex normals

vt 0.7500 0.0000 1.0000
vt 0.8056 0.0000 1.0000
vt 0.8056 0.1429 1.0000
vt 0.7500 0.1429 1.0000
vt 0.8611 0.0000 1.0000
vt 0.8611 0.1429 1.0000
vt 0.9167 0.0000 1.0000
vt 0.9167 0.1429 1.0000
vt 0.9722 0.0000 1.0000
vt 0.9722 0.1429 1.0000
vt 1.0278 0.0000 1.0000
vt 1.0278 0.1429 1.0000
vt 0.0278 0.0000 1.0000
vt 0.0833 0.0000 1.0000
vt 0.0833 0.1429 1.0000
vt 0.0278 0.1429 1.0000
vt 0.1389 0.0000 1.0000
vt 0.1389 0.1429 1.0000
vt 0.1944 0.0000 1.0000
vt 0.1944 0.1429 1.0000
vt 0.2500 0.0000 1.0000
vt 0.2500 0.1429 1.0000
vt 0.3056 0.0000 1.0000
vt 0.3056 0.1429 1.0000
vt 0.3611 0.0000 1.0000
vt 0.3611 0.1429 1.0000
vt 0.4167 0.0000 1.0000
vt 0.4167 0.1429 1.0000
vt 0.4722 0.0000 1.0000
vt 0.4722 0.1429 1.0000
vt 0.5278 0.0000 1.0000
vt 0.5278 0.1429 1.0000
vt 0.5833 0.0000 1.0000
vt 0.5833 0.1429 1.0000
vt 0.6389 0.0000 1.0000
vt 0.6389 0.1429 1.0000
vt 0.6944 0.0000 1.0000
vt 0.6944 0.1429 1.0000
vt 0.8056 0.2857 1.0000
vt 0.7500 0.2857 1.0000
vt 0.8611 0.2857 1.0000
vt 0.9167 0.2857 1.0000
vt 0.9722 0.2857 1.0000
vt 1.0278 0.2857 1.0000
vt 0.0833 0.2857 1.0000
vt 0.0278 0.2857 1.0000
vt 0.1389 0.2857 1.0000
vt 0.1944 0.2857 1.0000
vt 0.2500 0.2857 1.0000
vt 0.3056 0.2857 1.0000
vt 0.3611 0.2857 1.0000
vt 0.4167 0.2857 1.0000
vt 0.4722 0.2857 1.0000
vt 0.5278 0.2857 1.0000
vt 0.5833 0.2857 1.0000
vt 0.6389 0.2857 1.0000
vt 0.6944 0.2857 1.0000
vt 0.8056 0.4286 1.0000
vt 0.7500 0.4286 1.0000
vt 0.8611 0.4286 1.0000
vt 0.9167 0.4286 1.0000
vt 0.9722 0.4286 1.0000
vt 1.0278 0.4286 1.0000
vt 0.0833 0.4286 1.0000
vt 0.0278 0.4286 1.0000
vt 0.1389 0.4286 1.0000
vt 0.1944 0.4286 1.0000
vt 0.2500 0.4286 1.0000
vt 0.3056 0.4286 1.0000
vt 0.3611 0.4286 1.0000
vt 0.4167 0.4286 1.0000
vt 0.4722 0.4286 1.0000
vt 0.5278 0.4286 1.0000
vt 0.5833 0.4286 1.0000
vt 0.6389 0.4286 1.0000
vt 0.6944 0.4286 1.0000
vt 0.8056 0.5714 1.0000
vt 0.7500 0.5714 1.0000
vt 0.8611 0.5714 1.0000
vt 0.9167 0.5714 1.0000
vt 0.9722 0.5714 1.0000
vt 1.0278 0.5714 1.0000
vt 0.0833 0.5714 1.0000
vt 0.0278 0.5714 1.0000
vt 0.1389 0.5714 1.0000
vt 0.1944 0.5714 1.0000
vt 0.2500 0.5714 1.0000
vt 0.3056 0.5714 1.0000
vt 0.3611 0.5714 1.0000
vt 0.4167 0.5714 1.0000
vt 0.4722 0.5714 1.0000
vt 0.5278 0.5714 1.0000
vt 0.5833 0.5714 1.0000
vt 0.6389 0.5714 1.0000
vt 0.6944 0.5714 1.0000
vt 0.8056 0.7143 1.0000
vt 0.7500 0.7143 1.0000
vt 0.8611 0.7143 1.0000
vt 0.9167 0.7143 1.0000
vt 0.9722 0.7143 1.0000
vt 1.0278 0.7143 1.0000
vt 0.0833 0.7143 1.0000
vt 0.0278 0.7143 1.0000
vt 0.1389 0.7143 1.0000
vt 0.1944 0.7143 1.0000
vt 0.2500 0.7143 1.0000
vt 0.3056 0.7143 1.0000
vt 0.3611 0.7143 1.0000
vt 0.4167 0.7143 1.0000
vt 0.4722 0.7143 1.0000
vt 0.5278 0.7143 1.0000
vt 0.5833 0.7143 1.0000
vt 0.6389 0.7143 1.0000
vt 0.6944 0.7143 1.0000
vt 0.8056 0.8571 1.0000
vt 0.7500 0.8571 1.0000
vt 0.8611 0.8571 1.0000
vt 0.9167 0.8571 1.0000
vt 0.9722 0.8571 1.0000
vt 1.0278 0.8571 1.0000
vt 0.0833 0.8571 1.0000
vt 0.0278 0.8571 1.0000
vt 0.1389 0.8571 1.0000
vt 0.1944 0.8571 1.0000
vt 0.2500 0.8571 1.0000
vt 0.3056 0.8571 1.0000
vt 0.3611 0.8571 1.0000
vt 0.4167 0.8571 1.0000
vt 0.4722 0.8571 1.0000
vt 0.5278 0.8571 1.0000
vt 0.5833 0.8571 1.0000
vt 0.6389 0.8571 1.0000
vt 0.6944 0.8571 1.0000
vt 0.8056 1.0000 1.0000
vt 0.7500 1.0000 1.0000
vt 0.8611 1.0000 1.0000
vt 0.9167 1.0000 1.0000
vt 0.9722 1.0000 1.0000
vt 1.0278 1.0000 1.0000
vt 0.0833 1.0000 1.0000
vt 0.0278 1.0000 1.0000
vt 0.1389 1.0000 1.0000
vt 0.1944 1.0000 1.0000
vt 0.2500 1.0000 1.0000
vt 0.3056 1.0000 1.0000
vt 0.3611 1.0000 1.0000
vt 0.4167 1.0000 1.0000
vt 0.4722 1.0000 1.0000
vt 0.5278 1.0000 1.0000
vt 0.5833 1.0000 1.0000
vt 0.6389 1.0000 1.0000
vt 0.6944 1.0000 1.0000
vt 0.8214 0.8830 -0.2500
vt 0.9330 0.7500 -0.2500
vt 0.9924 0.5868 -0.2500
vt 0.9924 0.4132 -0.2500
vt 0.9330 0.2500 -0.2500
vt 0.8214 0.1170 -0.2500
vt 0.6710 0.0302 -0.2500
vt 0.5000 0.0000 -0.2500
vt 0.3290 0.0302 -0.2500
vt 0.1786 0.1170 -0.2500
vt 0.0670 0.2500 -0.2500
vt 0.0076 0.4132 -0.2500
vt 0.0076 0.5868 -0.2500
vt 0.0670 0.7500 -0.2500
vt 0.1786 0.8830 -0.2500
vt 0.3290 0.9698 -0.2500
vt 0.5000 1.0000 -0.2500
vt 0.6710 0.9698 -0.2500
vt 0.3290 0.9698 0.2500
vt 0.1786 0.8830 0.2500
vt 0.0670 0.7500 0.2500
vt 0.0076 0.5868 0.2500
vt 0.0076 0.4132 0.2500
vt 0.0670 0.2500 0.2500
vt 0.1786 0.1170 0.2500
vt 0.3290 0.0302 0.2500
vt 0.5000 0.0000 0.2500
vt 0.6710 0.0302 0.2500
vt 0.8214 0.1170 0.2500
vt 0.9330 0.2500 0.2500
vt 0.9924 0.4132 0.2500
vt 0.9924 0.5868 0.2500
vt 0.9330 0.7500 0.2500
vt 0.8214 0.8830 0.2500
vt 0.6710 0.9698 0.2500
vt 0.5000 1.0000 0.2500
# 188 texture coords

g Cylinder005
usemtl 23___Default
s 8
f 1/1/1 2/2/2 3/3/3 
f 3/3/3 4/4/4 1/1/1 
f 2/2/2 5/5/5 6/6/6 
f 6/6/6 3/3/3 2/2/2 
f 5/5/5 7/7/7 8/8/8 
f 8/8/8 6/6/6 5/5/5 
f 7/7/7 9/9/9 10/10/10 
f 10/10/10 8/8/8 7/7/7 
f 9/9/9 11/11/11 12/12/12 
f 12/12/12 10/10/10 9/9/9 
f 11/13/11 13/14/13 14/15/14 
f 14/15/14 12/16/12 11/13/11 
f 13/14/13 15/17/15 16/18/16 
f 16/18/16 14/15/14 13/14/13 
f 15/17/15 17/19/17 18/20/18 
f 18/20/18 16/18/16 15/17/15 
f 17/19/17 19/21/19 20/22/20 
f 20/22/20 18/20/18 17/19/17 
f 19/21/19 21/23/21 22/24/22 
f 22/24/22 20/22/20 19/21/19 
f 21/23/21 23/25/23 24/26/24 
f 24/26/24 22/24/22 21/23/21 
f 23/25/23 25/27/25 26/28/26 
f 26/28/26 24/26/24 23/25/23 
f 25/27/25 27/29/27 28/30/28 
f 28/30/28 26/28/26 25/27/25 
f 27/29/27 29/31/29 30/32/30 
f 30/32/30 28/30/28 27/29/27 
f 29/31/29 31/33/31 32/34/32 
f 32/34/32 30/32/30 29/31/29 
f 31/33/31 33/35/33 34/36/34 
f 34/36/34 32/34/32 31/33/31 
f 33/35/33 35/37/35 36/38/36 
f 36/38/36 34/36/34 33/35/33 
f 35/37/35 1/1/1 4/4/4 
f 4/4/4 36/38/36 35/37/35 
f 4/4/4 3/3/3 37/39/37 
f 37/39/37 38/40/38 4/4/4 
f 3/3/3 6/6/6 39/41/39 
f 39/41/39 37/39/37 3/3/3 
f 6/6/6 8/8/8 40/42/40 
f 40/42/40 39/41/39 6/6/6 
f 8/8/8 10/10/10 41/43/41 
f 41/43/41 40/42/40 8/8/8 
f 10/10/10 12/12/12 42/44/42 
f 42/44/42 41/43/41 10/10/10 
f 12/16/12 14/15/14 43/45/43 
f 43/45/43 42/46/42 12/16/12 
f 14/15/14 16/18/16 44/47/44 
f 44/47/44 43/45/43 14/15/14 
f 16/18/16 18/20/18 45/48/45 
f 45/48/45 44/47/44 16/18/16 
f 18/20/18 20/22/20 46/49/46 
f 46/49/46 45/48/45 18/20/18 
f 20/22/20 22/24/22 47/50/47 
f 47/50/47 46/49/46 20/22/20 
f 22/24/22 24/26/24 48/51/48 
f 48/51/48 47/50/47 22/24/22 
f 24/26/24 26/28/26 49/52/49 
f 49/52/49 48/51/48 24/26/24 
f 26/28/26 28/30/28 50/53/50 
f 50/53/50 49/52/49 26/28/26 
f 28/30/28 30/32/30 51/54/51 
f 51/54/51 50/53/50 28/30/28 
f 30/32/30 32/34/32 52/55/52 
f 52/55/52 51/54/51 30/32/30 
f 32/34/32 34/36/34 53/56/53 
f 53/56/53 52/55/52 32/34/32 
f 34/36/34 36/38/36 54/57/54 
f 54/57/54 53/56/53 34/36/34 
f 36/38/36 4/4/4 38/40/38 
f 38/40/38 54/57/54 36/38/36 
f 38/40/38 37/39/37 55/58/55 
f 55/58/55 56/59/56 38/40/38 
f 37/39/37 39/41/39 57/60/57 
f 57/60/57 55/58/55 37/39/37 
f 39/41/39 40/42/40 58/61/58 
f 58/61/58 57/60/57 39/41/39 
f 40/42/40 41/43/41 59/62/59 
f 59/62/59 58/61/58 40/42/40 
f 41/43/41 42/44/42 60/63/60 
f 60/63/60 59/62/59 41/43/41 
f 42/46/42 43/45/43 61/64/61 
f 61/64/61 60/65/60 42/46/42 
f 43/45/43 44/47/44 62/66/62 
f 62/66/62 61/64/61 43/45/43 
f 44/47/44 45/48/45 63/67/63 
f 63/67/63 62/66/62 44/47/44 
f 45/48/45 46/49/46 64/68/64 
f 64/68/64 63/67/63 45/48/45 
f 46/49/46 47/50/47 65/69/65 
f 65/69/65 64/68/64 46/49/46 
f 47/50/47 48/51/48 66/70/66 
f 66/70/66 65/69/65 47/50/47 
f 48/51/48 49/52/49 67/71/67 
f 67/71/67 66/70/66 48/51/48 
f 49/52/49 50/53/50 68/72/68 
f 68/72/68 67/71/67 49/52/49 
f 50/53/50 51/54/51 69/73/69 
f 69/73/69 68/72/68 50/53/50 
f 51/54/51 52/55/52 70/74/70 
f 70/74/70 69/73/69 51/54/51 
f 52/55/52 53/56/53 71/75/71 
f 71/75/71 70/74/70 52/55/52 
f 53/56/53 54/57/54 72/76/72 
f 72/76/72 71/75/71 53/56/53 
f 54/57/54 38/40/38 56/59/56 
f 56/59/56 72/76/72 54/57/54 
f 56/59/56 55/58/55 73/77/73 
f 73/77/73 74/78/74 56/59/56 
f 55/58/55 57/60/57 75/79/75 
f 75/79/75 73/77/73 55/58/55 
f 57/60/57 58/61/58 76/80/76 
f 76/80/76 75/79/75 57/60/57 
f 58/61/58 59/62/59 77/81/77 
f 77/81/77 76/80/76 58/61/58 
f 59/62/59 60/63/60 78/82/78 
f 78/82/78 77/81/77 59/62/59 
f 60/65/60 61/64/61 79/83/79 
f 79/83/79 78/84/78 60/65/60 
f 61/64/61 62/66/62 80/85/80 
f 80/85/80 79/83/79 61/64/61 
f 62/66/62 63/67/63 81/86/81 
f 81/86/81 80/85/80 62/66/62 
f 63/67/63 64/68/64 82/87/82 
f 82/87/82 81/86/81 63/67/63 
f 64/68/64 65/69/65 83/88/83 
f 83/88/83 82/87/82 64/68/64 
f 65/69/65 66/70/66 84/89/84 
f 84/89/84 83/88/83 65/69/65 
f 66/70/66 67/71/67 85/90/85 
f 85/90/85 84/89/84 66/70/66 
f 67/71/67 68/72/68 86/91/86 
f 86/91/86 85/90/85 67/71/67 
f 68/72/68 69/73/69 87/92/87 
f 87/92/87 86/91/86 68/72/68 
f 69/73/69 70/74/70 88/93/88 
f 88/93/88 87/92/87 69/73/69 
f 70/74/70 71/75/71 89/94/89 
f 89/94/89 88/93/88 70/74/70 
f 71/75/71 72/76/72 90/95/90 
f 90/95/90 89/94/89 71/75/71 
f 72/76/72 56/59/56 74/78/74 
f 74/78/74 90/95/90 72/76/72 
f 74/78/74 73/77/73 91/96/91 
f 91/96/91 92/97/92 74/78/74 
f 73/77/73 75/79/75 93/98/93 
f 93/98/93 91/96/91 73/77/73 
f 75/79/75 76/80/76 94/99/94 
f 94/99/94 93/98/93 75/79/75 
f 76/80/76 77/81/77 95/100/95 
f 95/100/95 94/99/94 76/80/76 
f 77/81/77 78/82/78 96/101/96 
f 96/101/96 95/100/95 77/81/77 
f 78/84/78 79/83/79 97/102/97 
f 97/102/97 96/103/96 78/84/78 
f 79/83/79 80/85/80 98/104/98 
f 98/104/98 97/102/97 79/83/79 
f 80/85/80 81/86/81 99/105/99 
f 99/105/99 98/104/98 80/85/80 
f 81/86/81 82/87/82 100/106/100 
f 100/106/100 99/105/99 81/86/81 
f 82/87/82 83/88/83 101/107/101 
f 101/107/101 100/106/100 82/87/82 
f 83/88/83 84/89/84 102/108/102 
f 102/108/102 101/107/101 83/88/83 
f 84/89/84 85/90/85 103/109/103 
f 103/109/103 102/108/102 84/89/84 
f 85/90/85 86/91/86 104/110/104 
f 104/110/104 103/109/103 85/90/85 
f 86/91/86 87/92/87 105/111/105 
f 105/111/105 104/110/104 86/91/86 
f 87/92/87 88/93/88 106/112/106 
f 106/112/106 105/111/105 87/92/87 
f 88/93/88 89/94/89 107/113/107 
f 107/113/107 106/112/106 88/93/88 
f 89/94/89 90/95/90 108/114/108 
f 108/114/108 107/113/107 89/94/89 
f 90/95/90 74/78/74 92/97/92 
f 92/97/92 108/114/108 90/95/90 
f 92/97/92 91/96/91 109/115/109 
f 109/115/109 110/116/110 92/97/92 
f 91/96/91 93/98/93 111/117/111 
f 111/117/111 109/115/109 91/96/91 
f 93/98/93 94/99/94 112/118/112 
f 112/118/112 111/117/111 93/98/93 
f 94/99/94 95/100/95 113/119/113 
f 113/119/113 112/118/112 94/99/94 
f 95/100/95 96/101/96 114/120/114 
f 114/120/114 113/119/113 95/100/95 
f 96/103/96 97/102/97 115/121/115 
f 115/121/115 114/122/114 96/103/96 
f 97/102/97 98/104/98 116/123/116 
f 116/123/116 115/121/115 97/102/97 
f 98/104/98 99/105/99 117/124/117 
f 117/124/117 116/123/116 98/104/98 
f 99/105/99 100/106/100 118/125/118 
f 118/125/118 117/124/117 99/105/99 
f 100/106/100 101/107/101 119/126/119 
f 119/126/119 118/125/118 100/106/100 
f 101/107/101 102/108/102 120/127/120 
f 120/127/120 119/126/119 101/107/101 
f 102/108/102 103/109/103 121/128/121 
f 121/128/121 120/127/120 102/108/102 
f 103/109/103 104/110/104 122/129/122 
f 122/129/122 121/128/121 103/109/103 
f 104/110/104 105/111/105 123/130/123 
f 123/130/123 122/129/122 104/110/104 
f 105/111/105 106/112/106 124/131/124 
f 124/131/124 123/130/123 105/111/105 
f 106/112/106 107/113/107 125/132/125 
f 125/132/125 124/131/124 106/112/106 
f 107/113/107 108/114/108 126/133/126 
f 126/133/126 125/132/125 107/113/107 
f 108/114/108 92/97/92 110/116/110 
f 110/116/110 126/133/126 108/114/108 
f 110/116/110 109/115/109 127/134/127 
f 127/134/127 128/135/128 110/116/110 
f 109/115/109 111/117/111 129/136/129 
f 129/136/129 127/134/127 109/115/109 
f 111/117/111 112/118/112 130/137/130 
f 130/137/130 129/136/129 111/117/111 
f 112/118/112 113/119/113 131/138/131 
f 131/138/131 130/137/130 112/118/112 
f 113/119/113 114/120/114 132/139/132 
f 132/139/132 131/138/131 113/119/113 
f 114/122/114 115/121/115 133/140/133 
f 133/140/133 132/141/132 114/122/114 
f 115/121/115 116/123/116 134/142/134 
f 134/142/134 133/140/133 115/121/115 
f 116/123/116 117/124/117 135/143/135 
f 135/143/135 134/142/134 116/123/116 
f 117/124/117 118/125/118 136/144/136 
f 136/144/136 135/143/135 117/124/117 
f 118/125/118 119/126/119 137/145/137 
f 137/145/137 136/144/136 118/125/118 
f 119/126/119 120/127/120 138/146/138 
f 138/146/138 137/145/137 119/126/119 
f 120/127/120 121/128/121 139/147/139 
f 139/147/139 138/146/138 120/127/120 
f 121/128/121 122/129/122 140/148/140 
f 140/148/140 139/147/139 121/128/121 
f 122/129/122 123/130/123 141/149/141 
f 141/149/141 140/148/140 122/129/122 
f 123/130/123 124/131/124 142/150/142 
f 142/150/142 141/149/141 123/130/123 
f 124/131/124 125/132/125 143/151/143 
f 143/151/143 142/150/142 124/131/124 
f 125/132/125 126/133/126 144/152/144 
f 144/152/144 143/151/143 125/132/125 
f 126/133/126 110/116/110 128/135/128 
f 128/135/128 144/152/144 126/133/126 
s 1
f 33/153/145 31/154/145 29/155/145 
f 29/155/145 27/156/145 25/157/145 
f 25/157/145 23/158/145 21/159/145 
f 29/155/145 25/157/145 21/159/145 
f 21/159/145 19/160/145 17/161/145 
f 17/161/145 15/162/145 13/163/145 
f 21/159/145 17/161/145 13/163/145 
f 13/163/145 11/164/145 9/165/145 
f 9/165/145 7/166/145 5/167/145 
f 13/163/145 9/165/145 5/167/145 
f 21/159/145 13/163/145 5/167/145 
f 29/155/145 21/159/145 5/167/145 
f 5/167/145 2/168/145 1/169/145 
f 29/155/145 5/167/145 1/169/145 
f 33/153/145 29/155/145 1/169/145 
f 35/170/145 33/153/145 1/169/145 
f 127/171/146 129/172/146 130/173/146 
f 130/173/146 131/174/146 132/175/146 
f 132/175/146 133/176/146 134/177/146 
f 130/173/146 132/175/146 134/177/146 
f 134/177/146 135/178/146 136/179/146 
f 136/179/146 137/180/146 138/181/146 
f 134/177/146 136/179/146 138/181/146 
f 138/181/146 139/182/146 140/183/146 
f 140/183/146 141/184/146 142/185/146 
f 138/181/146 140/183/146 142/185/146 
f 134/177/146 138/181/146 142/185/146 
f 130/173/146 134/177/146 142/185/146 
f 142/185/146 143/186/146 144/187/146 
f 130/173/146 142/185/146 144/187/146 
f 127/171/146 130/173/146 144/187/146 
f 128/188/146 127/171/146 144/187/146 
# 284 faces

#
# object Plane003
#

v  -0.7344 -1.6505 -5.1479
v  0.7274 -1.6505 -5.1481
v  0.9321 -1.6505 -6.1793
v  -0.9383 -1.6505 -6.1790
v  0.7274 -1.7432 -5.1481
v  0.9321 -1.7432 -6.1793
v  -0.9383 -1.7432 -6.1790
v  -0.7344 -1.7432 -5.1479
# 8 vertices

vn 0.0000 1.0000 -0.0000
vn 0.9809 0.0000 0.1947
vn -0.0002 0.0000 -1.0000
vn -0.9810 0.0000 0.1940
vn 0.0001 0.0000 1.0000
# 5 vertex normals

vt 1.0000 1.0000 0.0000
vt 0.0000 1.0000 0.0000
vt 0.0000 0.0000 0.0000
vt 1.0000 0.0000 0.0000
# 4 texture coords

g Plane003
usemtl 23___Default
s 1
f 145/189/147 146/190/147 147/191/147 
f 147/191/147 148/192/147 145/189/147 
s off
f 149/190/148 150/191/148 147/191/148 
f 147/191/148 146/190/148 149/190/148 
f 150/191/149 151/192/149 148/192/149 
f 148/192/149 147/191/149 150/191/149 
f 151/192/150 152/189/150 145/189/150 
f 145/189/150 148/192/150 151/192/150 
f 152/189/151 149/190/151 146/190/151 
f 146/190/151 145/189/151 152/189/151 
# 10 faces

