# 3ds Max Wavefront OBJ Exporter v0.97b - (c)2007 guruware
# File Created: 20.11.2010 18:04:06

mtllib m4.mtl

#
# object Cylinder002
#

v  -0.0892 0.0000 -2.2075
v  -0.0837 -0.0315 -2.2075
v  -0.0836 -0.0315 -1.5979
v  -0.0891 0.0000 -1.5979
v  -0.0676 -0.0593 -2.2075
v  -0.0676 -0.0593 -1.5979
v  -0.2452 -0.2709 -2.1425
v  -0.2207 -0.2915 -2.1426
v  -0.2207 -0.2915 -1.7030
v  -0.2452 -0.2709 -1.7030
v  -0.0431 -0.0799 -2.2075
v  -0.0130 -0.0908 -2.2075
v  -0.0130 -0.0908 -1.5979
v  -0.0430 -0.0799 -1.5979
v  0.0190 -0.0908 -2.2075
v  0.0191 -0.0908 -1.5979
v  0.0491 -0.0799 -2.2075
v  0.0491 -0.0799 -1.5979
v  0.2267 -0.2915 -2.1260
v  0.2512 -0.2709 -2.1260
v  0.2513 -0.2709 -1.7049
v  0.2267 -0.2915 -1.7049
v  0.0736 -0.0593 -2.2075
v  0.0896 -0.0315 -2.2075
v  0.0897 -0.0315 -1.5979
v  0.0737 -0.0593 -1.5979
v  0.0951 0.0000 -2.2075
v  0.0953 0.0000 -1.5979
v  0.0896 0.0315 -2.2075
v  0.0897 0.0315 -1.5979
v  0.0736 0.0593 -2.2075
v  0.0737 0.0593 -1.5979
v  0.2512 0.2709 -2.1260
v  0.2267 0.2915 -2.1260
v  0.2267 0.2915 -1.7049
v  0.2513 0.2709 -1.7049
v  0.0491 0.0799 -2.2075
v  0.0190 0.0908 -2.2075
v  0.0191 0.0908 -1.5979
v  0.0491 0.0799 -1.5979
v  -0.0130 0.0908 -2.2075
v  -0.0130 0.0908 -1.5979
v  -0.0431 0.0799 -2.2075
v  -0.0430 0.0799 -1.5979
v  -0.2207 0.2915 -2.1426
v  -0.2452 0.2709 -2.1425
v  -0.2452 0.2709 -1.7030
v  -0.2207 0.2915 -1.7030
v  -0.0676 0.0593 -2.2075
v  -0.0837 0.0315 -2.2075
v  -0.0836 0.0315 -1.5979
v  -0.0676 0.0593 -1.5979
v  -0.0832 -0.0315 1.3425
v  -0.0888 0.0000 1.3425
v  -0.0672 -0.0593 1.3425
v  -0.0427 -0.0799 1.3425
v  -0.0126 -0.0908 1.3425
v  0.0194 -0.0908 1.3425
v  0.0495 -0.0799 1.3425
v  0.0740 -0.0593 1.3425
v  0.0900 -0.0315 1.3425
v  0.0956 0.0000 1.3425
v  0.0900 0.0315 1.3425
v  0.0740 0.0593 1.3425
v  0.0495 0.0799 1.3425
v  0.0194 0.0908 1.3425
v  -0.0126 0.0908 1.3425
v  -0.0427 0.0799 1.3425
v  -0.0672 0.0593 1.3425
v  -0.0832 0.0315 1.3425
v  -0.0832 -0.0315 1.5941
v  -0.0887 0.0000 1.5941
v  -0.0672 -0.0593 1.5941
v  -0.2448 -0.2709 1.3425
v  -0.2203 -0.2915 1.3425
v  -0.2203 -0.2915 1.3710
v  -0.2448 -0.2709 1.3710
v  -0.0126 -0.0908 1.5941
v  -0.0426 -0.0799 1.5941
v  0.0195 -0.0908 1.5941
v  0.0495 -0.0799 1.5941
v  0.2271 -0.2915 1.3424
v  0.2517 -0.2709 1.3424
v  0.2517 -0.2709 1.3712
v  0.2271 -0.2915 1.3712
v  0.0901 -0.0315 1.5941
v  0.0741 -0.0593 1.5941
v  0.0956 0.0000 1.5941
v  0.0901 0.0315 1.5941
v  0.0741 0.0593 1.5941
v  0.2517 0.2709 1.3424
v  0.2271 0.2915 1.3424
v  0.2271 0.2915 1.3691
v  0.2517 0.2709 1.3691
v  0.0195 0.0908 1.5941
v  0.0495 0.0799 1.5941
v  -0.0126 0.0908 1.5941
v  -0.0426 0.0799 1.5941
v  -0.2203 0.2915 1.3425
v  -0.2448 0.2709 1.3425
v  -0.2448 0.2709 1.3710
v  -0.2203 0.2915 1.3710
v  -0.0832 0.0315 1.5941
v  -0.0672 0.0593 1.5941
v  -0.0601 -0.0232 1.9507
v  -0.0642 0.0000 1.9507
v  -0.0484 -0.0436 1.9507
v  -0.0304 -0.0587 1.9507
v  -0.0082 -0.0667 1.9507
v  0.0153 -0.0667 1.9507
v  0.0374 -0.0587 1.9507
v  0.0554 -0.0436 1.9507
v  0.0672 -0.0232 1.9507
v  0.0713 0.0000 1.9507
v  0.0672 0.0232 1.9507
v  0.0554 0.0436 1.9507
v  0.0374 0.0587 1.9507
v  0.0153 0.0667 1.9507
v  -0.0082 0.0667 1.9507
v  -0.0304 0.0587 1.9507
v  -0.0484 0.0436 1.9507
v  -0.0601 0.0232 1.9507
v  -0.0052 -0.0032 2.1811
v  -0.0058 0.0000 2.1811
v  -0.0036 -0.0060 2.1811
v  -0.0011 -0.0080 2.1811
v  0.0019 -0.0092 2.1811
v  0.0051 -0.0092 2.1811
v  0.0082 -0.0080 2.1811
v  0.0107 -0.0060 2.1811
v  0.0123 -0.0032 2.1811
v  0.0128 0.0000 2.1811
v  0.0123 0.0032 2.1811
v  0.0107 0.0060 2.1811
v  0.0082 0.0080 2.1811
v  0.0051 0.0092 2.1811
v  0.0019 0.0092 2.1811
v  -0.0011 0.0080 2.1811
v  -0.0036 0.0060 2.1811
v  -0.0052 0.0032 2.1811
# 140 vertices

vn -1.0000 0.0000 0.0001
vn -0.9397 -0.3420 0.0001
vn -0.8660 -0.5000 0.0001
vn -0.8024 -0.5967 0.0001
vn -0.6428 -0.7660 0.0001
vn -0.3420 -0.9397 -0.0000
vn -0.1736 -0.9848 -0.0000
vn -0.4483 -0.8939 0.0001
vn 0.0000 -1.0000 -0.0000
vn 0.3420 -0.9397 -0.0000
vn 0.4483 -0.8939 -0.0001
vn 0.6428 -0.7660 -0.0001
vn 0.8660 -0.5000 -0.0001
vn 0.9397 -0.3420 -0.0001
vn 0.8024 -0.5967 -0.0001
vn 1.0000 0.0000 -0.0001
vn 0.9397 0.3420 -0.0001
vn 0.8660 0.5000 -0.0001
vn 0.8024 0.5967 -0.0001
vn 0.6428 0.7660 -0.0001
vn 0.3420 0.9397 -0.0000
vn 0.1736 0.9848 -0.0000
vn 0.4483 0.8939 -0.0001
vn -0.1736 0.9848 -0.0000
vn -0.3420 0.9397 -0.0000
vn -0.4483 0.8939 0.0001
vn -0.6428 0.7660 0.0001
vn -0.8660 0.5000 0.0001
vn -0.9397 0.3420 0.0001
vn -0.8024 0.5967 0.0001
vn -0.9391 -0.3418 0.0342
vn -0.9994 0.0000 0.0342
vn -0.8018 -0.5958 0.0455
vn -0.1735 -0.9842 0.0341
vn -0.4475 -0.8931 0.0454
vn 0.0000 -0.9994 0.0335
vn 0.4475 -0.8931 0.0453
vn 0.9392 -0.3418 0.0339
vn 0.8018 -0.5958 0.0453
vn 0.9994 0.0000 0.0339
vn 0.9392 0.3418 0.0339
vn 0.8018 0.5958 0.0453
vn 0.1736 0.9842 0.0340
vn 0.4475 0.8931 0.0453
vn -0.1735 0.9842 0.0341
vn -0.4475 0.8931 0.0454
vn -0.9391 0.3418 0.0342
vn -0.8018 0.5958 0.0455
vn -0.9281 -0.3378 0.1563
vn -0.9877 0.0000 0.1563
vn -0.7566 -0.6349 0.1563
vn -0.4938 -0.8554 0.1563
vn -0.1715 -0.9727 0.1562
vn 0.0000 -0.9881 0.1539
vn 0.3413 -0.9376 0.0673
vn 0.4939 -0.8554 0.1562
vn 0.7567 -0.6349 0.1561
vn 0.9282 -0.3378 0.1561
vn 0.9877 0.0000 0.1561
vn 0.9282 0.3378 0.1561
vn 0.7567 0.6349 0.1561
vn 0.4939 0.8554 0.1562
vn 0.1715 0.9727 0.1562
vn -0.1715 0.9727 0.1562
vn -0.4938 0.8554 0.1563
vn -0.7566 0.6349 0.1563
vn -0.9281 0.3378 0.1563
vn -0.9108 -0.3315 0.2460
vn -0.9693 0.0000 0.2460
vn -0.7425 -0.6231 0.2460
vn -0.4846 -0.8394 0.2459
vn -0.1683 -0.9546 0.2459
vn 0.0000 -0.9702 0.2424
vn 0.3319 -0.9117 0.2423
vn 0.4847 -0.8394 0.2458
vn 0.7426 -0.6231 0.2458
vn 0.9109 -0.3315 0.2457
vn 0.9693 0.0000 0.2457
vn 0.9109 0.3315 0.2457
vn 0.7426 0.6231 0.2458
vn 0.4847 0.8394 0.2458
vn 0.1683 0.9546 0.2458
vn -0.1683 0.9546 0.2459
vn -0.4846 0.8394 0.2459
vn -0.7425 0.6231 0.2460
vn -0.9108 0.3315 0.2460
vn -0.0001 0.0000 -1.0000
vn 0.0001 0.0000 1.0000
vn -0.7660 0.6428 0.0001
vn -0.1470 -0.1751 -0.9735
vn 0.7660 -0.6428 -0.0001
vn -0.2285 -0.2725 0.9346
vn -0.7660 -0.6428 0.0001
vn 0.1816 -0.2166 -0.9592
vn 0.7660 0.6428 -0.0001
vn 0.2322 -0.2766 0.9325
vn 0.1816 0.2166 -0.9592
vn 0.2322 0.2766 0.9325
vn -0.1470 0.1751 -0.9735
vn -0.2285 0.2725 0.9346
vn -0.4037 -0.4812 0.7781
vn 0.4037 -0.4809 0.7783
vn 0.4059 0.4836 0.7755
vn -0.4037 0.4812 0.7781
# 104 vertex normals

vt 0.7500 0.0000 0.0000
vt 0.8056 0.0000 0.0000
vt 0.8056 0.2000 0.0000
vt 0.7500 0.2000 0.0000
vt 0.8611 0.0000 0.0000
vt 0.8611 0.2000 0.0000
vt 0.9167 0.0000 0.0000
vt 0.9167 0.2000 0.0000
vt 0.9722 0.0000 0.0000
vt 0.9722 0.2000 0.0000
vt 1.0278 0.0000 0.0000
vt 1.0278 0.2000 0.0000
vt 0.0278 0.0000 0.0000
vt 0.0833 0.0000 0.0000
vt 0.0833 0.2000 0.0000
vt 0.0278 0.2000 0.0000
vt 0.1389 0.0000 0.0000
vt 0.1389 0.2000 0.0000
vt 0.1944 0.0000 0.0000
vt 0.1944 0.2000 0.0000
vt 0.2500 0.0000 0.0000
vt 0.2500 0.2000 0.0000
vt 0.3056 0.0000 0.0000
vt 0.3056 0.2000 0.0000
vt 0.3611 0.0000 0.0000
vt 0.3611 0.2000 0.0000
vt 0.4167 0.0000 0.0000
vt 0.4167 0.2000 0.0000
vt 0.4722 0.0000 0.0000
vt 0.4722 0.2000 0.0000
vt 0.5278 0.0000 0.0000
vt 0.5278 0.2000 0.0000
vt 0.5833 0.0000 0.0000
vt 0.5833 0.2000 0.0000
vt 0.6389 0.0000 0.0000
vt 0.6389 0.2000 0.0000
vt 0.6944 0.0000 0.0000
vt 0.6944 0.2000 0.0000
vt 0.8056 0.4000 0.0000
vt 0.7500 0.4000 0.0000
vt 0.8611 0.4000 0.0000
vt 0.9167 0.4000 0.0000
vt 0.9722 0.4000 0.0000
vt 1.0278 0.4000 0.0000
vt 0.0833 0.4000 0.0000
vt 0.0278 0.4000 0.0000
vt 0.1389 0.4000 0.0000
vt 0.1944 0.4000 0.0000
vt 0.2500 0.4000 0.0000
vt 0.3056 0.4000 0.0000
vt 0.3611 0.4000 0.0000
vt 0.4167 0.4000 0.0000
vt 0.4722 0.4000 0.0000
vt 0.5278 0.4000 0.0000
vt 0.5833 0.4000 0.0000
vt 0.6389 0.4000 0.0000
vt 0.6944 0.4000 0.0000
vt 0.8056 0.6000 0.0000
vt 0.7500 0.6000 0.0000
vt 0.8611 0.6000 0.0000
vt 0.9167 0.6000 0.0000
vt 0.9722 0.6000 0.0000
vt 1.0278 0.6000 0.0000
vt 0.0833 0.6000 0.0000
vt 0.0278 0.6000 0.0000
vt 0.1389 0.6000 0.0000
vt 0.1944 0.6000 0.0000
vt 0.2500 0.6000 0.0000
vt 0.3056 0.6000 0.0000
vt 0.3611 0.6000 0.0000
vt 0.4167 0.6000 0.0000
vt 0.4722 0.6000 0.0000
vt 0.5278 0.6000 0.0000
vt 0.5833 0.6000 0.0000
vt 0.6389 0.6000 0.0000
vt 0.6944 0.6000 0.0000
vt 0.8056 0.8000 0.0000
vt 0.7500 0.8000 0.0000
vt 0.8611 0.8000 0.0000
vt 0.9167 0.8000 0.0000
vt 0.9722 0.8000 0.0000
vt 1.0278 0.8000 0.0000
vt 0.0833 0.8000 0.0000
vt 0.0278 0.8000 0.0000
vt 0.1389 0.8000 0.0000
vt 0.1944 0.8000 0.0000
vt 0.2500 0.8000 0.0000
vt 0.3056 0.8000 0.0000
vt 0.3611 0.8000 0.0000
vt 0.4167 0.8000 0.0000
vt 0.4722 0.8000 0.0000
vt 0.5278 0.8000 0.0000
vt 0.5833 0.8000 0.0000
vt 0.6389 0.8000 0.0000
vt 0.6944 0.8000 0.0000
vt 0.8056 1.0000 0.0000
vt 0.7500 1.0000 0.0000
vt 0.8611 1.0000 0.0000
vt 0.9167 1.0000 0.0000
vt 0.9722 1.0000 0.0000
vt 1.0278 1.0000 0.0000
vt 0.0833 1.0000 0.0000
vt 0.0278 1.0000 0.0000
vt 0.1389 1.0000 0.0000
vt 0.1944 1.0000 0.0000
vt 0.2500 1.0000 0.0000
vt 0.3056 1.0000 0.0000
vt 0.3611 1.0000 0.0000
vt 0.4167 1.0000 0.0000
vt 0.4722 1.0000 0.0000
vt 0.5278 1.0000 0.0000
vt 0.5833 1.0000 0.0000
vt 0.6389 1.0000 0.0000
vt 0.6944 1.0000 0.0000
vt 0.8214 0.8830 0.0000
vt 0.9330 0.7500 0.0000
vt 0.9924 0.5868 0.0000
vt 0.9924 0.4132 0.0000
vt 0.9330 0.2500 0.0000
vt 0.8214 0.1170 0.0000
vt 0.6710 0.0302 0.0000
vt 0.5000 0.0000 0.0000
vt 0.3290 0.0302 0.0000
vt 0.1786 0.1170 0.0000
vt 0.0670 0.2500 0.0000
vt 0.0076 0.4132 0.0000
vt 0.0076 0.5868 0.0000
vt 0.0670 0.7500 0.0000
vt 0.1786 0.8830 0.0000
vt 0.3290 0.9698 0.0000
vt 0.5000 1.0000 0.0000
vt 0.6710 0.9698 0.0000
# 132 texture coords

g Cylinder002
usemtl 18___Default
s 8
f 1/1/1 2/2/2 3/3/2 
f 3/3/2 4/4/1 1/1/1 
f 2/2/2 5/5/3 6/6/4 
f 6/6/4 3/3/2 2/2/2 
f 7/5/5 8/7/5 9/8/5 
f 9/8/5 10/6/5 7/5/5 
f 11/7/6 12/9/7 13/10/7 
f 13/10/7 14/8/8 11/7/6 
f 12/9/7 15/11/9 16/12/9 
f 16/12/9 13/10/7 12/9/7 
f 15/13/10 17/14/10 18/15/11 
f 18/15/11 16/16/10 15/13/10 
f 19/14/12 20/17/12 21/18/12 
f 21/18/12 22/15/12 19/14/12 
f 23/17/13 24/19/14 25/20/14 
f 25/20/14 26/18/15 23/17/13 
f 24/19/14 27/21/16 28/22/16 
f 28/22/16 25/20/14 24/19/14 
f 27/21/16 29/23/17 30/24/17 
f 30/24/17 28/22/16 27/21/16 
f 29/23/17 31/25/18 32/26/19 
f 32/26/19 30/24/17 29/23/17 
f 33/25/20 34/27/20 35/28/20 
f 35/28/20 36/26/20 33/25/20 
f 37/27/21 38/29/22 39/30/22 
f 39/30/22 40/28/23 37/27/21 
f 38/29/22 41/31/24 42/32/24 
f 42/32/24 39/30/22 38/29/22 
f 41/31/24 43/33/25 44/34/26 
f 44/34/26 42/32/24 41/31/24 
f 45/33/27 46/35/27 47/36/27 
f 47/36/27 48/34/27 45/33/27 
f 49/35/28 50/37/29 51/38/29 
f 51/38/29 52/36/30 49/35/28 
f 50/37/29 1/1/1 4/4/1 
f 4/4/1 51/38/29 50/37/29 
f 4/4/1 3/3/2 53/39/2 
f 53/39/2 54/40/1 4/4/1 
f 3/3/2 6/6/4 55/41/4 
f 55/41/4 53/39/2 3/3/2 
f 6/6/4 14/8/8 56/42/8 
f 56/42/8 55/41/4 6/6/4 
f 14/8/8 13/10/7 57/43/7 
f 57/43/7 56/42/8 14/8/8 
f 13/10/7 16/12/9 58/44/9 
f 58/44/9 57/43/7 13/10/7 
f 16/16/10 18/15/11 59/45/11 
f 59/45/11 58/46/10 16/16/10 
f 18/15/11 26/18/15 60/47/15 
f 60/47/15 59/45/11 18/15/11 
f 26/18/15 25/20/14 61/48/14 
f 61/48/14 60/47/15 26/18/15 
f 25/20/14 28/22/16 62/49/16 
f 62/49/16 61/48/14 25/20/14 
f 28/22/16 30/24/17 63/50/17 
f 63/50/17 62/49/16 28/22/16 
f 30/24/17 32/26/19 64/51/19 
f 64/51/19 63/50/17 30/24/17 
f 32/26/19 40/28/23 65/52/23 
f 65/52/23 64/51/19 32/26/19 
f 40/28/23 39/30/22 66/53/22 
f 66/53/22 65/52/23 40/28/23 
f 39/30/22 42/32/24 67/54/24 
f 67/54/24 66/53/22 39/30/22 
f 42/32/24 44/34/26 68/55/26 
f 68/55/26 67/54/24 42/32/24 
f 44/34/26 52/36/30 69/56/30 
f 69/56/30 68/55/26 44/34/26 
f 52/36/30 51/38/29 70/57/29 
f 70/57/29 69/56/30 52/36/30 
f 51/38/29 4/4/1 54/40/1 
f 54/40/1 70/57/29 51/38/29 
f 54/40/1 53/39/2 71/58/31 
f 71/58/31 72/59/32 54/40/1 
f 53/39/2 55/41/4 73/60/33 
f 73/60/33 71/58/31 53/39/2 
f 74/41/5 75/42/5 76/61/5 
f 76/61/5 77/60/5 74/41/5 
f 56/42/8 57/43/7 78/62/34 
f 78/62/34 79/61/35 56/42/8 
f 57/43/7 58/44/9 80/63/36 
f 80/63/36 78/62/34 57/43/7 
f 58/46/10 59/45/11 81/64/37 
f 81/64/37 80/65/10 58/46/10 
f 82/45/12 83/47/12 84/66/12 
f 84/66/12 85/64/12 82/45/12 
f 60/47/15 61/48/14 86/67/38 
f 86/67/38 87/66/39 60/47/15 
f 61/48/14 62/49/16 88/68/40 
f 88/68/40 86/67/38 61/48/14 
f 62/49/16 63/50/17 89/69/41 
f 89/69/41 88/68/40 62/49/16 
f 63/50/17 64/51/19 90/70/42 
f 90/70/42 89/69/41 63/50/17 
f 91/51/20 92/52/20 93/71/20 
f 93/71/20 94/70/20 91/51/20 
f 65/52/23 66/53/22 95/72/43 
f 95/72/43 96/71/44 65/52/23 
f 66/53/22 67/54/24 97/73/45 
f 97/73/45 95/72/43 66/53/22 
f 67/54/24 68/55/26 98/74/46 
f 98/74/46 97/73/45 67/54/24 
f 99/55/27 100/56/27 101/75/27 
f 101/75/27 102/74/27 99/55/27 
f 69/56/30 70/57/29 103/76/47 
f 103/76/47 104/75/48 69/56/30 
f 70/57/29 54/40/1 72/59/32 
f 72/59/32 103/76/47 70/57/29 
f 72/59/32 71/58/31 105/77/49 
f 105/77/49 106/78/50 72/59/32 
f 71/58/31 73/60/33 107/79/51 
f 107/79/51 105/77/49 71/58/31 
f 73/60/33 79/61/35 108/80/52 
f 108/80/52 107/79/51 73/60/33 
f 79/61/35 78/62/34 109/81/53 
f 109/81/53 108/80/52 79/61/35 
f 78/62/34 80/63/36 110/82/54 
f 110/82/54 109/81/53 78/62/34 
f 80/65/55 81/64/37 111/83/56 
f 111/83/56 110/84/55 80/65/55 
f 81/64/37 87/66/39 112/85/57 
f 112/85/57 111/83/56 81/64/37 
f 87/66/39 86/67/38 113/86/58 
f 113/86/58 112/85/57 87/66/39 
f 86/67/38 88/68/40 114/87/59 
f 114/87/59 113/86/58 86/67/38 
f 88/68/40 89/69/41 115/88/60 
f 115/88/60 114/87/59 88/68/40 
f 89/69/41 90/70/42 116/89/61 
f 116/89/61 115/88/60 89/69/41 
f 90/70/42 96/71/44 117/90/62 
f 117/90/62 116/89/61 90/70/42 
f 96/71/44 95/72/43 118/91/63 
f 118/91/63 117/90/62 96/71/44 
f 95/72/43 97/73/45 119/92/64 
f 119/92/64 118/91/63 95/72/43 
f 97/73/45 98/74/46 120/93/65 
f 120/93/65 119/92/64 97/73/45 
f 98/74/46 104/75/48 121/94/66 
f 121/94/66 120/93/65 98/74/46 
f 104/75/48 103/76/47 122/95/67 
f 122/95/67 121/94/66 104/75/48 
f 103/76/47 72/59/32 106/78/50 
f 106/78/50 122/95/67 103/76/47 
f 106/78/50 105/77/49 123/96/68 
f 123/96/68 124/97/69 106/78/50 
f 105/77/49 107/79/51 125/98/70 
f 125/98/70 123/96/68 105/77/49 
f 107/79/51 108/80/52 126/99/71 
f 126/99/71 125/98/70 107/79/51 
f 108/80/52 109/81/53 127/100/72 
f 127/100/72 126/99/71 108/80/52 
f 109/81/53 110/82/54 128/101/73 
f 128/101/73 127/100/72 109/81/53 
f 110/84/74 111/83/56 129/102/75 
f 129/102/75 128/103/74 110/84/74 
f 111/83/56 112/85/57 130/104/76 
f 130/104/76 129/102/75 111/83/56 
f 112/85/57 113/86/58 131/105/77 
f 131/105/77 130/104/76 112/85/57 
f 113/86/58 114/87/59 132/106/78 
f 132/106/78 131/105/77 113/86/58 
f 114/87/59 115/88/60 133/107/79 
f 133/107/79 132/106/78 114/87/59 
f 115/88/60 116/89/61 134/108/80 
f 134/108/80 133/107/79 115/88/60 
f 116/89/61 117/90/62 135/109/81 
f 135/109/81 134/108/80 116/89/61 
f 117/90/62 118/91/63 136/110/82 
f 136/110/82 135/109/81 117/90/62 
f 118/91/63 119/92/64 137/111/83 
f 137/111/83 136/110/82 118/91/63 
f 119/92/64 120/93/65 138/112/84 
f 138/112/84 137/111/83 119/92/64 
f 120/93/65 121/94/66 139/113/85 
f 139/113/85 138/112/84 120/93/65 
f 121/94/66 122/95/67 140/114/86 
f 140/114/86 139/113/85 121/94/66 
f 122/95/67 106/78/50 124/97/69 
f 124/97/69 140/114/86 122/95/67 
s 1
f 49/115/87 43/116/87 41/117/87 
f 41/117/87 38/118/87 37/119/87 
f 37/119/87 31/120/87 29/121/87 
f 41/117/87 37/119/87 29/121/87 
f 29/121/87 27/122/87 24/123/87 
f 24/123/87 23/124/87 17/125/87 
f 29/121/87 24/123/87 17/125/87 
f 17/125/87 15/126/87 12/127/87 
f 12/127/87 11/128/87 5/129/87 
f 17/125/87 12/127/87 5/129/87 
f 29/121/87 17/125/87 5/129/87 
f 41/117/87 29/121/87 5/129/87 
f 5/129/87 2/130/87 1/131/87 
f 41/117/87 5/129/87 1/131/87 
f 49/115/87 41/117/87 1/131/87 
f 50/132/87 49/115/87 1/131/87 
f 123/130/88 125/129/88 126/128/88 
f 126/128/88 127/127/88 128/126/88 
f 128/126/88 129/125/88 130/124/88 
f 126/128/88 128/126/88 130/124/88 
f 130/124/88 131/123/88 132/122/88 
f 132/122/88 133/121/88 134/120/88 
f 130/124/88 132/122/88 134/120/88 
f 134/120/88 135/119/88 136/118/88 
f 136/118/88 137/117/88 138/116/88 
f 134/120/88 136/118/88 138/116/88 
f 130/124/88 134/120/88 138/116/88 
f 126/128/88 130/124/88 138/116/88 
f 138/116/88 139/115/88 140/132/88 
f 126/128/88 138/116/88 140/132/88 
f 123/130/88 126/128/88 140/132/88 
f 124/131/88 123/130/88 140/132/88 
s off
f 6/6/89 5/5/89 7/5/89 
f 7/5/89 10/6/89 6/6/89 
f 5/129/90 11/128/90 8/7/90 
f 8/7/90 7/5/90 5/129/90 
f 11/7/91 14/8/91 9/8/91 
f 9/8/91 8/7/91 11/7/91 
f 14/8/92 6/6/92 10/6/92 
f 10/6/92 9/8/92 14/8/92 
f 18/15/93 17/14/93 19/14/93 
f 19/14/93 22/15/93 18/15/93 
f 17/125/94 23/124/94 20/17/94 
f 20/17/94 19/14/94 17/125/94 
f 23/17/95 26/18/95 21/18/95 
f 21/18/95 20/17/95 23/17/95 
f 26/18/96 18/15/96 22/15/96 
f 22/15/96 21/18/96 26/18/96 
f 32/26/91 31/25/91 33/25/91 
f 33/25/91 36/26/91 32/26/91 
f 31/120/97 37/119/97 34/27/97 
f 34/27/97 33/25/97 31/120/97 
f 37/27/89 40/28/89 35/28/89 
f 35/28/89 34/27/89 37/27/89 
f 40/28/98 32/26/98 36/26/98 
f 36/26/98 35/28/98 40/28/98 
f 44/34/95 43/33/95 45/33/95 
f 45/33/95 48/34/95 44/34/95 
f 43/116/99 49/115/99 46/35/99 
f 46/35/99 45/33/99 43/116/99 
f 49/35/93 52/36/93 47/36/93 
f 47/36/93 46/35/93 49/35/93 
f 52/36/100 44/34/100 48/34/100 
f 48/34/100 47/36/100 52/36/100 
f 55/41/87 56/42/87 75/42/87 
f 75/42/87 74/41/87 55/41/87 
f 56/42/91 79/61/91 76/61/91 
f 76/61/91 75/42/91 56/42/91 
f 79/61/101 73/60/101 77/60/101 
f 77/60/101 76/61/101 79/61/101 
f 73/60/89 55/41/89 74/41/89 
f 74/41/89 77/60/89 73/60/89 
f 59/45/87 60/47/87 83/47/87 
f 83/47/87 82/45/87 59/45/87 
f 60/47/95 87/66/95 84/66/95 
f 84/66/95 83/47/95 60/47/95 
f 87/66/102 81/64/102 85/64/102 
f 85/64/102 84/66/102 87/66/102 
f 81/64/93 59/45/93 82/45/93 
f 82/45/93 85/64/93 81/64/93 
f 64/51/87 65/52/87 92/52/87 
f 92/52/87 91/51/87 64/51/87 
f 65/52/89 96/71/89 93/71/89 
f 93/71/89 92/52/89 65/52/89 
f 96/71/103 90/70/103 94/70/103 
f 94/70/103 93/71/103 96/71/103 
f 90/70/91 64/51/91 91/51/91 
f 91/51/91 94/70/91 90/70/91 
f 68/55/87 69/56/87 100/56/87 
f 100/56/87 99/55/87 68/55/87 
f 69/56/93 104/75/93 101/75/93 
f 101/75/93 100/56/93 69/56/93 
f 104/75/104 98/74/104 102/74/104 
f 102/74/104 101/75/104 104/75/104 
f 98/74/95 68/55/95 99/55/95 
f 99/55/95 102/74/95 98/74/95 
# 276 faces
