# Blender v2.63 (sub 0) OBJ File: ''
# www.blender.org
mtllib tree.mtl
o pine1.001_pine1-Geometry.001
v 2.265283 18.360931 0.232791
v 1.165813 18.366152 -0.346183
v 0.591172 19.356815 1.052682
v 1.908233 18.366152 1.593718
v -0.222421 18.101711 -0.600351
v -0.725893 18.366152 0.511643
v 0.016530 18.331635 2.451548
v 1.185753 17.902124 2.683110
v -1.043689 18.092758 1.649181
v -6.742917 1.713571 3.792167
v 3.350206 1.707032 8.211823
v 7.767239 1.707206 -1.987335
v -2.314515 1.713681 -6.399823
v 1.314445 5.930330 -6.283581
v -6.665283 5.918053 1.678032
v 0.795273 2.598787 9.207231
v 8.755997 2.619606 1.265164
v -7.532708 2.586036 0.730598
v -0.058455 5.946974 8.217443
v 7.768202 5.946990 0.336677
v 0.302534 2.586237 -7.138732
v -4.213953 8.688190 4.749311
v 5.163800 8.677977 4.759966
v 5.204180 5.916567 -4.058001
v -4.150894 5.933886 -4.068976
v 5.116735 5.905958 5.827587
v 5.124143 8.702038 -2.973524
v -4.116007 8.702050 -2.941692
v -4.121737 5.906126 5.847640
v -5.004660 11.252669 0.357444
v 1.288203 11.242967 6.664625
v 7.239286 8.619416 0.767798
v 0.961873 8.635871 -5.524361
v 0.539351 8.609337 7.350239
v 6.456959 11.265824 1.442586
v 0.227996 11.265837 -4.743609
v -5.680572 8.609496 1.157258
v -3.158079 13.540485 4.078526
v 4.252850 13.532413 3.941948
v 4.148417 11.349792 -3.027069
v -3.244595 11.363482 -2.891095
v 4.232163 11.341409 4.786363
v 4.101935 13.551431 -2.168824
v -3.199595 13.551441 -2.000800
v -3.068223 11.341540 4.945054
v 4.184650 15.338792 1.295377
v 0.260485 15.332741 -2.637716
v -3.450549 13.696720 1.039485
v 0.463981 13.706982 4.963212
v 0.727461 13.690435 -3.065258
v -2.962698 15.346993 0.618695
v 0.921619 15.347003 4.476342
v 4.606143 13.690535 0.796621
v -1.677683 16.777615 2.838073
v 2.944477 16.772583 2.843325
v 2.964379 15.411520 -1.502924
v -1.646603 15.420055 -1.508334
v 2.921279 15.406293 3.369539
v 2.924930 16.784439 -0.968401
v -1.629407 16.784445 -0.952712
v -1.632231 15.406374 3.379424
v -1.676786 17.479509 1.112063
v 0.599955 17.479681 3.241066
v 2.973487 17.479673 1.096649
v 0.587684 17.480022 -1.443949
vt 0.496723 0.004271
vt 0.496723 0.457790
vt 0.007496 0.457790
vt 0.007496 0.004271
vt 0.749343 0.001186
vt 0.749343 0.247341
vt 0.517024 0.247341
vt 0.517024 0.001186
vt 0.630822 0.001186
vt 0.630822 0.126414
vt 0.517024 0.126414
vt 0.749343 0.126414
vt 0.630822 0.247341
vn 0.000538 1.000000 0.000250
vn 0.000536 1.000000 0.000244
vn 0.210337 0.954302 0.212287
vn 0.209307 0.954526 0.212301
vn -0.214839 0.953059 -0.213362
vn -0.214828 0.952947 -0.213873
vn 0.001379 0.954302 -0.298840
vn 0.002117 0.954526 -0.298121
vn 0.001044 0.953059 0.302784
vn 0.000675 0.952947 0.303137
vn 0.212287 0.954302 -0.210337
vn 0.212301 0.954526 -0.209307
vn -0.213362 0.953059 0.214839
vn -0.213873 0.952947 0.214828
vn -0.004467 0.954302 -0.298810
vn -0.003715 0.954526 -0.298106
vn 0.006967 0.953059 0.302705
vn 0.006605 0.952947 0.303066
vn -0.212287 0.954302 0.210337
vn -0.212301 0.954526 0.209307
vn 0.213362 0.953059 -0.214839
vn 0.213873 0.952947 -0.214828
vn 0.001378 0.954302 -0.298841
vn 0.002117 0.954525 -0.298122
vn -0.000035 1.000000 -0.000043
vn -0.000035 1.000000 0.000170
vn 0.429762 0.881893 -0.193701
vn 0.015320 0.861202 -0.507981
vn -0.032716 0.999237 0.020661
vn 0.412244 0.823328 0.390057
vn -0.128910 0.950011 -0.284280
vn -0.433546 0.864559 -0.253975
vn -0.100742 0.844234 0.526383
vn 0.210425 0.841304 0.497909
vn -0.547136 0.808985 0.214789
usemtl Material.001
s off
f 10/1/1 11/2/1 12/3/1
f 12/3/2 13/4/2 10/1/2
f 14/1/3 15/2/3 16/3/3
f 16/3/4 17/4/4 14/1/4
f 18/1/5 19/2/5 20/3/5
f 20/3/6 21/4/6 18/1/6
f 22/1/7 23/2/7 24/3/7
f 24/3/8 25/4/8 22/1/8
f 26/1/9 27/2/9 28/3/9
f 28/3/10 29/4/10 26/1/10
f 30/1/11 31/2/11 32/3/11
f 32/3/12 33/4/12 30/1/12
f 34/1/13 35/2/13 36/3/13
f 36/3/14 37/4/14 34/1/14
f 38/1/15 39/2/15 40/3/15
f 40/3/16 41/4/16 38/1/16
f 42/1/17 43/2/17 44/3/17
f 44/3/18 45/4/18 42/1/18
f 46/1/19 47/2/19 48/3/19
f 48/3/20 49/4/20 46/1/20
f 50/1/21 51/2/21 52/3/21
f 52/3/22 53/4/22 50/1/22
f 54/1/23 55/2/23 56/3/23
f 56/3/24 57/4/24 54/1/24
f 58/1/9 59/2/9 60/3/9
f 60/3/10 61/4/10 58/1/10
f 62/5/25 63/6/25 64/7/25
f 64/7/26 65/8/26 62/5/26
s 1
f 1/8/27 2/9/28 3/10/29
f 4/11/30 1/8/27 3/10/29
f 2/9/28 5/5/31 6/12/32
f 6/12/32 3/10/29 2/9/28
f 4/11/30 3/10/29 7/13/33
f 7/13/33 8/7/34 4/11/30
f 3/10/29 6/12/32 9/6/35
f 9/6/35 7/13/33 3/10/29
o pine1_pine1-Geometry
v 1.248548 0.129644 0.764140
v 0.711876 0.129644 0.205543
v 0.901602 2.792974 0.464674
v 1.199133 3.602416 0.980013
v 0.174766 0.129644 0.508482
v 0.306540 2.309042 0.464674
v 0.174766 0.129644 0.508482
v -0.176686 0.129644 1.092829
v 0.009009 2.817264 0.980013
v 0.306540 2.309042 0.464674
v 0.325388 0.129644 1.851769
v 0.306540 3.810358 1.495352
v 0.325388 0.129644 1.851769
v 1.003580 0.129644 1.556857
v 0.901602 2.792974 1.495352
v 0.306540 3.810358 1.495352
v 1.248548 0.129644 0.764140
v 1.199133 3.602416 0.980013
v 1.199133 3.602416 0.980013
v 0.901602 2.792974 0.464674
v 0.590293 19.143892 0.869138
v 0.782999 19.216686 1.002165
v 0.306540 2.309042 0.464674
v 0.306540 2.309042 0.464674
v 0.009009 2.817264 0.980013
v 0.429210 19.071096 1.015551
v 0.590293 19.143892 0.869138
v 0.306540 3.810358 1.495352
v 0.562622 19.071096 1.128498
v 0.306540 3.810358 1.495352
v 0.901602 2.792974 1.495352
v 0.562622 19.071096 1.128498
v 1.199133 3.602416 0.980013
v 0.782999 19.216686 1.002165
vt 0.996055 0.202761
vt 0.996223 0.239138
vt 0.759028 0.240220
vt 0.758540 0.203529
vt 0.996610 0.275986
vt 0.759188 0.278647
vt 0.996485 0.276056
vt 0.996087 0.238962
vt 0.758965 0.240255
vt 0.758981 0.278689
vt 0.995875 0.202978
vt 0.758690 0.203887
vt 0.995993 0.202705
vt 0.995947 0.239260
vt 0.759283 0.240106
vt 0.758535 0.203708
vt 0.995561 0.277996
vt 0.759755 0.280735
vt 0.759034 0.278565
vt 0.758903 0.240668
vt 0.996406 0.221229
vt 0.996707 0.278379
vt 0.758655 0.204478
vt 0.996253 0.238545
vt 0.996560 0.203913
vt 0.996480 0.258462
vn 0.736717 0.019959 -0.675893
vn 0.146306 0.026704 -0.988861
vn 0.669576 0.063112 -0.740013
vn 0.831935 0.046205 -0.552904
vn -0.491226 0.012177 -0.870937
vn -0.133152 0.092532 -0.986755
vn -0.855098 0.037965 -0.517045
vn -0.998260 0.052980 0.025056
vn -0.985473 0.075350 0.152013
vn -0.847438 0.040590 -0.529313
vn -0.833003 0.049074 0.551073
vn -0.891446 0.068026 0.447951
vn 0.366588 0.045045 0.929289
vn 0.736259 0.020112 0.676382
vn 0.544053 0.073733 0.835780
vn 0.163976 0.095889 0.981780
vn 0.955382 -0.004730 0.295236
vn 0.882687 0.028199 0.469069
vn 0.843745 0.029206 -0.535936
vn 0.184515 0.027802 -0.982421
vn 0.561296 0.016694 -0.827418
vn 0.563860 0.016175 -0.825678
vn -0.019776 0.024323 -0.999481
vn -0.853481 0.023347 -0.520554
vn -0.932890 0.025697 -0.359203
vn -0.996460 0.033845 -0.076601
vn -0.679464 0.029054 -0.733085
vn -0.886593 0.025971 0.461806
vn -0.652882 0.015290 0.757286
vn 0.039888 0.023316 0.998901
vn 0.544755 0.025575 0.838160
vn 0.475265 0.029695 0.879330
vn 0.850520 0.021912 0.525468
vn 0.496963 0.029603 0.867244
usemtl Material.003
s 1
f 66/14/36 67/15/37 68/16/38
f 69/17/39 66/14/36 68/16/38
f 67/15/37 70/18/40 71/19/41
f 71/19/41 68/16/38 67/15/37
f 72/20/42 73/21/43 74/22/44
f 74/22/44 75/23/45 72/20/42
f 73/21/43 76/24/46 77/25/47
f 77/25/47 74/22/44 73/21/43
f 78/26/48 79/27/49 80/28/50
f 80/28/50 81/29/51 78/26/48
f 79/27/49 82/30/52 83/31/53
f 83/31/53 80/28/50 79/27/49
f 84/32/54 85/33/55 86/34/56
f 86/34/56 87/35/57 84/32/54
f 85/33/55 88/36/58 86/34/56
f 89/32/59 90/33/60 91/37/61
f 91/37/61 92/35/62 89/32/59
f 90/33/60 93/36/63 94/38/64
f 94/38/64 91/37/61 90/33/60
f 95/32/65 96/33/66 97/39/67
f 96/33/66 98/36/68 99/38/69
f 99/38/69 97/39/67 96/33/66
