# Blender v2.63 (sub 0) OBJ File: ''
# www.blender.org
mtllib tree.mtl
o tree_pine_02_tree_pine_02-Geometry
v 0.937135 -0.752646 -0.220939
v 0.273970 22.458744 -0.181490
v 0.404731 22.363188 0.044994
v 0.276013 -0.752646 -0.909071
v 0.012449 22.413853 -0.181490
v -0.385648 -0.752646 -0.535882
v -0.385648 -0.752646 -0.535882
v -0.118312 22.391653 0.044994
v 0.012449 22.413853 -0.181490
v -0.818600 -0.752646 0.183971
v 0.012449 22.609468 0.271479
v -0.200099 -0.752646 1.118905
v -0.200099 -0.752646 1.118905
v 0.273971 22.506639 0.271478
v 0.012449 22.609468 0.271479
v 0.635361 -0.752646 0.755603
v 0.404731 22.363188 0.044994
v 0.937135 -0.752646 -0.220939
vt 0.749472 0.184954
vt 0.996724 0.184320
vt 0.996602 0.194111
vt 0.751608 0.089974
vt 0.994677 0.195493
vt 0.749298 0.147773
vt 0.749429 0.145752
vt 0.996790 0.183299
vt 0.994891 0.194370
vt 0.751745 0.095254
vt 0.996452 0.193169
vt 0.749663 0.184395
vt 0.749535 0.185101
vt 0.993051 0.197345
vt 0.996611 0.193644
vt 0.751685 0.115118
vt 0.995016 0.095638
vt 0.751276 0.087999
vn 0.722160 0.021790 -0.691336
vn 0.468490 0.033082 -0.882809
vn 0.870388 0.025697 -0.491653
vn 0.145360 0.027558 -0.988983
vn -0.014435 0.031220 -0.999390
vn -0.491134 0.021760 -0.870785
vn -0.856777 0.022797 -0.515122
vn -0.996857 0.030244 0.073061
vn -0.866756 0.022492 -0.498215
vn -0.999268 0.029817 0.022950
vn -0.875454 0.029328 0.482345
vn -0.833674 0.027589 0.551500
vn 0.396069 0.025361 0.917844
vn 0.367870 0.035890 0.929167
vn 0.014191 0.036103 0.999237
vn 0.743431 0.024140 0.668355
vn 0.874355 0.023621 0.484664
vn 0.955229 0.018586 0.295175
usemtl Trunk
s 1
f 1/1/1 2/2/2 3/3/3
f 1/1/1 4/4/4 2/2/2
f 4/4/4 5/5/5 2/2/2
f 4/4/4 6/6/6 5/5/5
f 7/7/7 8/8/8 9/9/9
f 7/7/7 10/10/10 8/8/8
f 10/10/10 11/11/11 8/8/8
f 10/10/10 12/12/12 11/11/11
f 13/13/13 14/14/14 15/15/15
f 13/13/13 16/16/16 14/14/14
f 16/16/16 17/17/17 14/14/14
f 16/16/16 18/18/18 17/17/17
